<svg xmlns="http://www.w3.org/2000/svg" xmlns:xlink="http://www.w3.org/1999/xlink" xmlns:lucid="lucid" width="2348" height="1986.57"><g transform="translate(164 852.5701809778393)" lucid:page-tab-id="0_0"><path d="M850 860c33.14 0 60 26.86 60 60s-26.86 60-60 60H670c-33.14 0-60-26.86-60-60s26.86-60 60-60z" stroke="#3a414a" fill="#d3d3d3"/><use xlink:href="#a" transform="matrix(1,0,0,1,615,865) translate(8.977864583333371 65.82573784722221)"/><use xlink:href="#b" transform="matrix(1,0,0,1,615,865) translate(190.34071180555554 65.82573784722221)"/><path d="M1340 870c33.14 0 60 26.86 60 60s-26.86 60-60 60h-180c-33.14 0-60-26.86-60-60s26.86-60 60-60z" stroke="#3a414a" fill="plum"/><use xlink:href="#c" transform="matrix(1,0,0,1,1105,875) translate(31.648220486111143 65.82573784722221)"/><use xlink:href="#d" transform="matrix(1,0,0,1,1105,875) translate(167.67035590277777 65.82573784722221)"/><path d="M209.18 755.3A10 10 0 0 1 218 750h84a10 10 0 0 1 8.82 5.3l26.36 49.4a11.25 11.25 0 0 1 0 10.6l-26.36 49.4A10 10 0 0 1 302 870h-84a10 10 0 0 1-8.82-5.3l-26.36-49.4a11.25 11.25 0 0 1 0-10.6z" stroke="#3a414a" fill="#90ee90"/><use xlink:href="#e" transform="matrix(1,0,0,1,185,755) translate(53.66819444444445 63.97569444444443)"/><path d="M209.18 935.3A10 10 0 0 1 218 930h84a10 10 0 0 1 8.82 5.3l26.36 49.4a11.25 11.25 0 0 1 0 10.6l-26.36 49.4a10 10 0 0 1-8.82 5.3h-84a10 10 0 0 1-8.82-5.3l-26.36-49.4a11.25 11.25 0 0 1 0-10.6z" stroke="#3a414a" fill="#add8e6"/><use xlink:href="#f" transform="matrix(1,0,0,1,185,935) translate(53.66819444444445 63.97569444444443)"/><path d="M209.18 575.3A10 10 0 0 1 218 570h84a10 10 0 0 1 8.82 5.3l26.36 49.4a11.25 11.25 0 0 1 0 10.6l-26.36 49.4A10 10 0 0 1 302 690h-84a10 10 0 0 1-8.82-5.3l-26.36-49.4a11.25 11.25 0 0 1 0-10.6z" stroke="#3a414a" fill="#f4a460"/><use xlink:href="#g" transform="matrix(1,0,0,1,185,575) translate(53.66819444444445 63.97569444444443)"/><path d="M9.18 655.3A10 10 0 0 1 18 650h84a10 10 0 0 1 8.82 5.3l26.36 49.4a11.25 11.25 0 0 1 0 10.6l-26.36 49.4A10 10 0 0 1 102 770H18a10 10 0 0 1-8.82-5.3l-26.36-49.4a11.25 11.25 0 0 1 0-10.6z" stroke="#3a414a" fill="#90ee90"/><use xlink:href="#h" transform="matrix(1,0,0,1,-15,655) translate(53.66819444444445 63.97569444444443)"/><path d="M9.18 835.3A10 10 0 0 1 18 830h84a10 10 0 0 1 8.82 5.3l26.36 49.4a11.25 11.25 0 0 1 0 10.6l-26.36 49.4A10 10 0 0 1 102 950H18a10 10 0 0 1-8.82-5.3l-26.36-49.4a11.25 11.25 0 0 1 0-10.6z" stroke="#3a414a" fill="#add8e6"/><use xlink:href="#i" transform="matrix(1,0,0,1,-15,835) translate(53.66819444444445 63.97569444444443)"/><path d="M480 800c0 171.2-138.8 310-310 310s-310-138.8-310-310S-1.2 490 170 490s310 138.8 310 310z" stroke="#000" stroke-width="8" fill-opacity="0"/><path d="M1699.18 745.3a10 10 0 0 1 8.82-5.3h84a10 10 0 0 1 8.82 5.3l26.36 49.4a11.25 11.25 0 0 1 0 10.6l-26.36 49.4a10 10 0 0 1-8.82 5.3h-84a10 10 0 0 1-8.82-5.3l-26.36-49.4a11.25 11.25 0 0 1 0-10.6z" stroke="#3a414a" fill="#556b2f"/><use xlink:href="#j" transform="matrix(1,0,0,1,1675,745) translate(53.66819444444445 63.97569444444443)"/><path d="M1699.18 925.3a10 10 0 0 1 8.82-5.3h84a10 10 0 0 1 8.82 5.3l26.36 49.4a11.25 11.25 0 0 1 0 10.6l-26.36 49.4a10 10 0 0 1-8.82 5.3h-84a10 10 0 0 1-8.82-5.3l-26.36-49.4a11.25 11.25 0 0 1 0-10.6z" stroke="#3a414a" fill="#4682b4"/><use xlink:href="#k" transform="matrix(1,0,0,1,1675,925) translate(53.66819444444445 63.97569444444443)"/><path d="M1699.18 565.3a10 10 0 0 1 8.82-5.3h84a10 10 0 0 1 8.82 5.3l26.36 49.4a11.25 11.25 0 0 1 0 10.6l-26.36 49.4a10 10 0 0 1-8.82 5.3h-84a10 10 0 0 1-8.82-5.3l-26.36-49.4a11.25 11.25 0 0 1 0-10.6z" stroke="#000" fill="#daa520"/><use xlink:href="#l" transform="matrix(1,0,0,1,1675,565) translate(53.66819444444445 63.97569444444443)"/><path d="M1899.18 645.3a10 10 0 0 1 8.82-5.3h84a10 10 0 0 1 8.82 5.3l26.36 49.4a11.25 11.25 0 0 1 0 10.6l-26.36 49.4a10 10 0 0 1-8.82 5.3h-84a10 10 0 0 1-8.82-5.3l-26.36-49.4a11.25 11.25 0 0 1 0-10.6z" stroke="#3a414a" fill="#556b2f"/><use xlink:href="#m" transform="matrix(1,0,0,1,1875,645) translate(53.66819444444445 63.97569444444443)"/><path d="M1919.18 825.3a10 10 0 0 1 8.82-5.3h84a10 10 0 0 1 8.82 5.3l26.36 49.4a11.25 11.25 0 0 1 0 10.6l-26.36 49.4a10 10 0 0 1-8.82 5.3h-84a10 10 0 0 1-8.82-5.3l-26.36-49.4a11.25 11.25 0 0 1 0-10.6z" stroke="#3a414a" fill="#4682b4"/><use xlink:href="#n" transform="matrix(1,0,0,1,1895,825) translate(53.66819444444445 63.97569444444443)"/><path d="M2160 800c0 171.2-138.8 310-310 310s-310-138.8-310-310 138.8-310 310-310 310 138.8 310 310z" stroke="#000" stroke-width="8" fill-opacity="0"/><path d="M749.18 425.3A10 10 0 0 1 758 420h84a10 10 0 0 1 8.82 5.3l26.36 49.4a11.25 11.25 0 0 1 0 10.6l-26.36 49.4A10 10 0 0 1 842 540h-84a10 10 0 0 1-8.82-5.3l-26.36-49.4a11.25 11.25 0 0 1 0-10.6z" stroke="#3a414a" fill="#2e8b57"/><use xlink:href="#o" transform="matrix(1,0,0,1,725,425) translate(53.66819444444445 63.97569444444443)"/><path d="M949.18 425.3A10 10 0 0 1 958 420h84a10 10 0 0 1 8.82 5.3l26.36 49.4a11.25 11.25 0 0 1 0 10.6l-26.36 49.4a10 10 0 0 1-8.82 5.3h-84a10 10 0 0 1-8.82-5.3l-26.36-49.4a11.25 11.25 0 0 1 0-10.6z" stroke="#fff" fill="#3232cd"/><use xlink:href="#p" transform="matrix(1,0,0,1,925,425) translate(53.66819444444445 63.97569444444443)"/><path d="M1149.18 425.3a10 10 0 0 1 8.82-5.3h84a10 10 0 0 1 8.82 5.3l26.36 49.4a11.25 11.25 0 0 1 0 10.6l-26.36 49.4a10 10 0 0 1-8.82 5.3h-84a10 10 0 0 1-8.82-5.3l-26.36-49.4a11.25 11.25 0 0 1 0-10.6z" stroke="#3a414a" fill="#ff7f00"/><use xlink:href="#q" transform="matrix(1,0,0,1,1125,425) translate(53.66819444444445 63.97569444444443)"/><path d="M1049.18 265.3a10 10 0 0 1 8.82-5.3h84a10 10 0 0 1 8.82 5.3l26.36 49.4a11.25 11.25 0 0 1 0 10.6l-26.36 49.4a10 10 0 0 1-8.82 5.3h-84a10 10 0 0 1-8.82-5.3l-26.36-49.4a11.25 11.25 0 0 1 0-10.6z" stroke="#3a414a" fill="#2e8b57"/><use xlink:href="#r" transform="matrix(1,0,0,1,1025,265) translate(53.66819444444445 63.97569444444443)"/><path d="M849.18 265.3A10 10 0 0 1 858 260h84a10 10 0 0 1 8.82 5.3l26.36 49.4a11.25 11.25 0 0 1 0 10.6l-26.36 49.4A10 10 0 0 1 942 380h-84a10 10 0 0 1-8.82-5.3l-26.36-49.4a11.25 11.25 0 0 1 0-10.6z" stroke="#fff" fill="#3232cd"/><use xlink:href="#s" transform="matrix(1,0,0,1,825,265) translate(53.66819444444445 63.97569444444443)"/><path d="M949.18 105.3A10 10 0 0 1 958 100h84a10 10 0 0 1 8.82 5.3l26.36 49.4a11.25 11.25 0 0 1 0 10.6l-26.36 49.4a10 10 0 0 1-8.82 5.3h-84a10 10 0 0 1-8.82-5.3l-26.36-49.4a11.25 11.25 0 0 1 0-10.6z" stroke="#3a414a" fill="#ff7f00"/><use xlink:href="#t" transform="matrix(1,0,0,1,925,105) translate(53.66819444444445 63.97569444444443)"/><path d="M1310 380c0 171.2-138.8 310-310 310S690 551.2 690 380 828.8 70 1000 70s310 138.8 310 310z" stroke="#000" stroke-width="8" fill-opacity="0"/><path d="M-120 366a6 6 0 0 1 6-6h568a6 6 0 0 1 6 6v188a6 6 0 0 1-6 6h-568a6 6 0 0 1-6-6z" stroke="#000" stroke-opacity="0" fill-opacity="0"/><use xlink:href="#u" transform="matrix(1,0,0,1,-115,365) translate(44.07407407407416 106.80555555555554)"/><use xlink:href="#v" transform="matrix(1,0,0,1,-115,365) translate(163.4567901234568 106.80555555555554)"/><use xlink:href="#w" transform="matrix(1,0,0,1,-115,365) translate(363.2098765432098 106.80555555555554)"/><path d="M710-54a6 6 0 0 1 6-6h568a6 6 0 0 1 6 6v188a6 6 0 0 1-6 6H716a6 6 0 0 1-6-6z" stroke="#000" stroke-opacity="0" fill-opacity="0"/><use xlink:href="#x" transform="matrix(1,0,0,1,715,-55) translate(92.77777777777786 106.80555555555554)"/><use xlink:href="#w" transform="matrix(1,0,0,1,715,-55) translate(314.5061728395061 106.80555555555554)"/><path d="M1560 346a6 6 0 0 1 6-6h568a6 6 0 0 1 6 6v188a6 6 0 0 1-6 6h-568a6 6 0 0 1-6-6z" stroke="#000" stroke-opacity="0" fill-opacity="0"/><use xlink:href="#y" transform="matrix(1,0,0,1,1565,345) translate(63.08641975308652 106.80555555555554)"/><use xlink:href="#v" transform="matrix(1,0,0,1,1565,345) translate(144.4444444444445 106.80555555555554)"/><use xlink:href="#w" transform="matrix(1,0,0,1,1565,345) translate(344.19753086419746 106.80555555555554)"/><path d="M604.5 919.72l-.6-.07-1.75-.26-1.72-.33-1.67-.4-1.66-.46-1.63-.52-1.63-.6-1.62-.7-1.62-.75-1.64-.86-1.65-.95-1.67-1.07-1.72-1.2-1.76-1.33-1.83-1.52-1.9-1.7-2-1.97-2.1-2.26-2.28-2.63-2.48-3.14-2.77-3.8-3.2-4.83-3.94-6.53-5.84-10.68-20-38.56-3.93-6.53-3.2-4.82-2.77-3.8-2.48-3.14-2.27-2.63-2.12-2.26-1.37-1.33" stroke="#3a414a" stroke-width="10" stroke-linejoin="round" fill="none"/><path d="M609.7 915l-.2 5 .15 4.34.08.67-5.46-.1.2-10z" stroke="#3a414a" stroke-width=".05" fill="#3a414a"/><path d="M498.8 800.83l14.95 1.37-3.66 8.52z" stroke="#3a414a" stroke-width="10" fill="#3a414a"/><path d="M760.15 854.5l.16-2.46.36-3.4.48-3.2.58-3.06.68-2.92.8-2.82.87-2.7.98-2.64 1.08-2.57 1.2-2.52 1.28-2.47 1.43-2.45 1.55-2.44 1.7-2.44 1.85-2.45 2.05-2.47 2.27-2.52 2.52-2.58 2.85-2.67 3.23-2.78 3.73-2.95 4.4-3.2 5.3-3.5 6.77-4.1 9.54-5.23 60.42-30.13 7.45-4.5 5.97-3.95 5-3.63 4.3-3.4 3.77-3.26 3.37-3.15 3-3.07 2.74-3.03 2.5-3 1.6-2.13" stroke="#3a414a" stroke-width="10" stroke-linejoin="round" fill="none"/><path d="M765.1 854.47l-.1 5.03h-10l.1-5.23z" stroke="#3a414a" stroke-width=".05" fill="#3a414a"/><path d="M925.93 701.42l-1.8 14.9-8.42-3.92z" stroke="#3a414a" stroke-width="10" fill="#3a414a"/><path d="M1249.86 864.5l-.18-2.8-.37-3.54-.5-3.36-.6-3.2-.7-3.05-.83-2.94-.93-2.83-1.02-2.76-1.13-2.67-1.25-2.64-1.36-2.6-1.5-2.57-1.6-2.55-1.78-2.55-1.94-2.56-2.14-2.58-2.38-2.65-2.64-2.7-2.96-2.78-3.38-2.9-3.88-3.08-4.55-3.32-5.5-3.65-6.96-4.2-9.67-5.3-19.9-9.76-35.82-17.25-10.4-5.7-7.63-4.62-6.15-4.08-5.16-3.74-4.45-3.53-3.9-3.37-3.48-3.26-3.12-3.2-2.82-3.12-2.58-3.12-2.36-3.1-1.24-1.8" stroke="#3a414a" stroke-width="10" stroke-linejoin="round" fill="none"/><path d="M1255 869.5h-10l-.1-5.03 10-.2z" stroke="#3a414a" stroke-width=".05" fill="#3a414a"/><path d="M1073.6 701.6l9.88 11.28-8.52 3.65z" stroke="#3a414a" stroke-width="10" fill="#3a414a"/><path d="M1405.5 929.74l1.05-.12 1.9-.27 1.84-.36 1.8-.43 1.8-.5 1.76-.58 1.75-.66 1.76-.73 1.76-.82 1.76-.92 1.8-1.04 1.8-1.15 1.86-1.3 1.9-1.44 1.98-1.63 2.06-1.85 2.16-2.12 2.3-2.44 2.44-2.86 2.68-3.38 3-4.12 3.44-5.2 4.26-7.06 6.3-11.53 21.6-41.65 4.26-7.05 3.45-5.2 3-4.13 2.66-3.38 2.46-2.85 2.28-2.45 2.16-2.1 1.4-1.28" stroke="#3a414a" stroke-width="10" stroke-linejoin="round" fill="none"/><path d="M1405.73 934.9l-5.44.1.2-5-.15-4.34-.08-.66 5.26-.1z" stroke="#3a414a" stroke-width=".05" fill="#3a414a"/><path d="M1521.08 800.36l-11.54 9.58-3.43-8.62z" stroke="#3a414a" stroke-width="10" fill="#3a414a"/><path d="M81.97-706.07a6 6 0 0 1 6-6h148a6 6 0 0 1 6 6v108a6 6 0 0 1-6 6h-148a6 6 0 0 1-6-6z" stroke="#3a414a" fill="#6f7681"/><use xlink:href="#z" transform="matrix(1,0,0,1,93.97504079916916,-700.0701809778393) translate(27.99348958333333 42.50043402777778)"/><use xlink:href="#A" transform="matrix(1,0,0,1,93.97504079916916,-700.0701809778393) translate(14.6579861111111 67.67404513888889)"/><path d="M361.98-832.07c96.27 19.92 157.17 19.92 193.13 19.92 58 0 135.15-19.92 193.15-19.92 36.54 0 96.87 0 193.73 19.92v100.08c-96.87-20.04-157.2-20.04-193.73-20.04-58 0-135.13 20.03-193.13 20.03-35.97 0-96.87 0-193.14-20.04z" stroke="#3a414a" fill="#fcfcca"/><use xlink:href="#B" transform="matrix(1,0,0,1,366.97504079916916,-827.0701809778393) translate(171.6482204861111 59.75043402777778)"/><use xlink:href="#C" transform="matrix(1,0,0,1,366.97504079916916,-827.0701809778393) translate(264.99674479166663 59.75043402777778)"/><use xlink:href="#D" transform="matrix(1,0,0,1,366.97504079916916,-827.0701809778393) translate(291.6677517361111 59.75043402777778)"/><path d="M381.98-686.07a6 6 0 0 1 6-6h108a6 6 0 0 1 6 6v68a6 6 0 0 1-6 6h-108a6 6 0 0 1-6-6z" stroke="#3a414a" fill="#e3fae3"/><path d="M393.98-692.07v80m96-80v80" stroke="#3a414a" fill="none"/><use xlink:href="#E" transform="matrix(1,0,0,1,401.97504079916916,-687.0701809778393) translate(19.996744791666668 40.91362847222222)"/><path d="M591.98-686.07a6 6 0 0 1 6-6h108a6 6 0 0 1 6 6v68a6 6 0 0 1-6 6h-108a6 6 0 0 1-6-6z" stroke="#3a414a" fill="#cfe4ff"/><path d="M603.98-692.07v80m96-80v80" stroke="#3a414a" fill="none"/><use xlink:href="#F" transform="matrix(1,0,0,1,611.9750407991692,-687.0701809778393) translate(19.996744791666668 40.91362847222222)"/><path d="M801.98-686.07a6 6 0 0 1 6-6h108a6 6 0 0 1 6 6v68a6 6 0 0 1-6 6h-108a6 6 0 0 1-6-6z" stroke="#3a414a" fill="#ffdda6"/><path d="M813.98-692.07v80m96-80v80" stroke="#3a414a" fill="none"/><use xlink:href="#G" transform="matrix(1,0,0,1,821.9750407991692,-687.0701809778393) translate(19.996744791666668 40.91362847222222)"/><path d="M1001.98-832.07c96.28 19.92 157.17 19.92 193.13 19.92 58.02 0 135.16-19.92 193.16-19.92 36.54 0 96.86 0 193.7 19.92v100.08c-96.85-20.04-157.16-20.04-193.7-20.04-58 0-135.14 20.03-193.14 20.03-35.96 0-96.86 0-193.14-20.04z" stroke="#3a414a" fill="#fff0f0"/><use xlink:href="#B" transform="matrix(1,0,0,1,1006.9750407991692,-827.0701809778393) translate(171.6482204861111 59.75043402777778)"/><use xlink:href="#H" transform="matrix(1,0,0,1,1006.9750407991692,-827.0701809778393) translate(264.99674479166663 59.75043402777778)"/><use xlink:href="#D" transform="matrix(1,0,0,1,1006.9750407991692,-827.0701809778393) translate(291.6677517361111 59.75043402777778)"/><path d="M1021.98-686.07a6 6 0 0 1 6-6h108a6 6 0 0 1 6 6v68a6 6 0 0 1-6 6h-108a6 6 0 0 1-6-6z" stroke="#3a414a" fill="#e3fae3"/><path d="M1033.97-692.07v80m96-80v80" stroke="#3a414a" fill="none"/><g><use xlink:href="#E" transform="matrix(1,0,0,1,1041.9750407991692,-687.0701809778393) translate(19.996744791666668 40.91362847222222)"/></g><path d="M1231.97-686.07a6 6 0 0 1 6-6h108a6 6 0 0 1 6 6v68a6 6 0 0 1-6 6h-108a6 6 0 0 1-6-6z" stroke="#3a414a" fill="#cfe4ff"/><path d="M1243.97-692.07v80m96-80v80" stroke="#3a414a" fill="none"/><g><use xlink:href="#F" transform="matrix(1,0,0,1,1251.9750407991692,-687.0701809778393) translate(19.996744791666668 40.91362847222222)"/></g><path d="M1441.97-686.07a6 6 0 0 1 6-6h108a6 6 0 0 1 6 6v68a6 6 0 0 1-6 6h-108a6 6 0 0 1-6-6z" stroke="#3a414a" fill="#ffdda6"/><path d="M1453.97-692.07v80m96-80v80" stroke="#3a414a" fill="none"/><g><use xlink:href="#G" transform="matrix(1,0,0,1,1461.9750407991692,-687.0701809778393) translate(19.996744791666668 40.91362847222222)"/></g><defs><path fill="#fff" d="M622-1349c296 4 497 117 497 404 0 282-193 424-485 431H353V0H162v-1349h460zm-15 684c195-3 320-88 320-277 0-184-129-255-328-254H353v531h254" id="I"/><path fill="#fff" d="M802-711c201 25 350 118 350 331C1152-95 921 0 634 0H162v-1349c401 9 908-74 908 327 0 184-111 275-268 311zm-224-69c174-2 300-51 300-218 0-163-124-198-302-198H353v416h225zM353-153c281-2 612 44 606-244-5-271-329-233-606-234v478" id="J"/><path fill="#fff" d="M617-1102c355 0 481 238 477 599H322c5 222 84 388 301 388 144 0 244-59 284-166l158 45C1002-72 854 20 623 20c-342 0-490-220-490-568 0-346 151-554 484-554zm291 461c-18-192-90-328-289-328-194 0-287 128-295 328h584" id="K"/><path fill="#fff" d="M237 0v-1349h191v1193h672V0H237" id="L"/><path fill="#fff" d="M334-464v-160h560v160H334" id="M"/><path fill="#fff" d="M1065-1013c47 164 49 500-1 665C999-130 875 20 611 20c-377 0-484-300-487-695-2-245 41-425 141-551 77-98 191-144 352-144 261 0 386 140 448 357zM741-155c199-92 203-504 159-785-26-168-96-284-283-284-281 0-308 256-311 549-2 181 18 324 80 428 46 77 115 118 227 120 47 0 90-10 128-28" id="N"/><path fill="#fff" d="M937-319V0H757v-319H103v-140l635-890h199v888h188v142H937zm-180-835L257-461h500v-693" id="O"/><g id="a"><use transform="matrix(0.01844618055555555,0,0,0.01844618055555555,0,0)" xlink:href="#I"/><use transform="matrix(0.01844618055555555,0,0,0.01844618055555555,22.67035590277777,0)" xlink:href="#J"/><use transform="matrix(0.01844618055555555,0,0,0.01844618055555555,45.34071180555554,0)" xlink:href="#K"/><use transform="matrix(0.01844618055555555,0,0,0.01844618055555555,68.01106770833331,0)" xlink:href="#L"/><use transform="matrix(0.01844618055555555,0,0,0.01844618055555555,90.68142361111109,0)" xlink:href="#M"/><use transform="matrix(0.01844618055555555,0,0,0.01844618055555555,113.35177951388887,0)" xlink:href="#N"/><use transform="matrix(0.01844618055555555,0,0,0.01844618055555555,136.02213541666663,0)" xlink:href="#O"/><path fill="#fff" d="M-1.9 8.02h185.15v1.55H-1.9z"/></g><path fill="#fff" d="M891-1484c-201 251-362 514-362 954 0 441 161 704 362 955H701C500 176 342-90 342-532c0-440 159-704 359-952h190" id="P"/><path fill="#fff" d="M1034 0L896-382H333L196 0H0l510-1349h217L1228 0h-194zM847-531c-77-225-157-447-231-674-69 231-154 451-232 674h463" id="Q"/><path fill="#fff" d="M148-1120c216-7 379-89 463-229h166v1204h353V0H157v-145h439v-1021c-79 124-254 184-448 194v-148" id="R"/><path fill="#fff" d="M528-1484c201 248 357 511 357 952 0 442-156 709-357 957H336C537 174 700-89 700-530c0-440-163-703-364-954h192" id="S"/><g id="b"><use transform="matrix(0.01844618055555555,0,0,0.01844618055555555,0,0)" xlink:href="#P"/><use transform="matrix(0.01844618055555555,0,0,0.01844618055555555,22.67035590277777,0)" xlink:href="#Q"/><use transform="matrix(0.01844618055555555,0,0,0.01844618055555555,45.34071180555554,0)" xlink:href="#R"/><use transform="matrix(0.01844618055555555,0,0,0.01844618055555555,68.01106770833331,0)" xlink:href="#S"/><path fill="#fff" d="M-1.9 8.02h94.47v1.55H-1.9z"/></g><path fill="#fff" d="M839-1102c70 0 148 7 206 17v167c-112-18-268-36-363 15-129 69-208 203-208 395V0H294c-10-367 32-789-52-1082h171c21 75 41 161 48 250h5c67-152 152-270 373-270" id="T"/><path fill="#fff" d="M615-1102c343 0 484 203 482 560-1 347-147 562-488 562-336 0-475-219-479-562-4-349 156-560 485-560zm-8 989c240 0 301-180 301-429 0-245-55-427-290-427-236 0-299 181-299 427 0 243 61 429 288 429" id="U"/><g id="c"><use transform="matrix(0.01844618055555555,0,0,0.01844618055555555,0,0)" xlink:href="#I"/><use transform="matrix(0.01844618055555555,0,0,0.01844618055555555,22.67035590277777,0)" xlink:href="#T"/><use transform="matrix(0.01844618055555555,0,0,0.01844618055555555,45.34071180555554,0)" xlink:href="#U"/><use transform="matrix(0.01844618055555555,0,0,0.01844618055555555,68.01106770833331,0)" xlink:href="#M"/><use transform="matrix(0.01844618055555555,0,0,0.01844618055555555,90.68142361111109,0)" xlink:href="#R"/><path fill="#fff" d="M-1.9 8.02h139.8v1.55H-1.9z"/></g><g id="d"><use transform="matrix(0.01844618055555555,0,0,0.01844618055555555,0,0)" xlink:href="#P"/><use transform="matrix(0.01844618055555555,0,0,0.01844618055555555,22.67035590277777,0)" xlink:href="#J"/><use transform="matrix(0.01844618055555555,0,0,0.01844618055555555,45.34071180555554,0)" xlink:href="#R"/><use transform="matrix(0.01844618055555555,0,0,0.01844618055555555,68.01106770833331,0)" xlink:href="#S"/><path fill="#fff" d="M-1.9 8.02h94.47v1.55H-1.9z"/></g><path fill="#fff" d="M650-1214c-281 0-336 244-336 533 0 295 60 546 347 546 188 0 263-142 322-282l159 65C1058-155 935 20 659 20c-401 0-546-295-546-701 0-407 135-689 536-689 264 0 391 146 466 335l-168 65c-47-129-127-244-297-244" id="V"/><g id="e"><use transform="matrix(0.017361111111111105,0,0,0.017361111111111105,0,0)" xlink:href="#V"/><use transform="matrix(0.017361111111111105,0,0,0.017361111111111105,21.336805555555546,0)" xlink:href="#R"/></g><path fill="#fff" d="M385-1193v494h676v158H385V0H194v-1349h891v156H385" id="W"/><g id="f"><use transform="matrix(0.017361111111111105,0,0,0.017361111111111105,0,0)" xlink:href="#W"/><use transform="matrix(0.017361111111111105,0,0,0.017361111111111105,21.336805555555546,0)" xlink:href="#R"/></g><path fill="#fff" d="M202-1349h823v156H709v1037h316V0H202v-156h316v-1037H202v-156" id="X"/><g id="g"><use transform="matrix(0.017361111111111105,0,0,0.017361111111111105,0,0)" xlink:href="#X"/><use transform="matrix(0.017361111111111105,0,0,0.017361111111111105,21.336805555555546,0)" xlink:href="#R"/></g><path fill="#fff" d="M611-1370c266 0 451 106 451 368 0 147-77 243-154 327-132 144-316 255-451 395-42 44-75 87-96 134h723V0H144v-117c124-264 387-411 582-603 73-72 151-147 151-271 0-161-104-231-266-231-163 0-249 90-268 238l-184-17c35-233 185-369 452-369" id="Y"/><g id="h"><use transform="matrix(0.017361111111111105,0,0,0.017361111111111105,0,0)" xlink:href="#V"/><use transform="matrix(0.017361111111111105,0,0,0.017361111111111105,21.336805555555546,0)" xlink:href="#Y"/></g><g id="i"><use transform="matrix(0.017361111111111105,0,0,0.017361111111111105,0,0)" xlink:href="#W"/><use transform="matrix(0.017361111111111105,0,0,0.017361111111111105,21.336805555555546,0)" xlink:href="#Y"/></g><path fill="#f2f3f5" d="M473-1349c438-1 655 221 652 661C1122-268 945-8 532 0H162v-1349h311zm42 1193c308-4 416-205 418-532 2-330-131-509-459-505H353v1037h162" id="Z"/><path fill="#f2f3f5" d="M148-1120c216-7 379-89 463-229h166v1204h353V0H157v-145h439v-1021c-79 124-254 184-448 194v-148" id="aa"/><g id="j"><use transform="matrix(0.017361111111111105,0,0,0.017361111111111105,0,0)" xlink:href="#Z"/><use transform="matrix(0.017361111111111105,0,0,0.017361111111111105,21.336805555555546,0)" xlink:href="#aa"/></g><path fill="#f2f3f5" d="M655-135c108 0 195-33 260-74v-336H622v-160h479v572C981-54 839 20 639 20c-388 0-526-306-526-701 0-406 129-689 529-689 261 0 392 137 461 331l-171 56c-47-131-122-231-288-231-281 0-330 245-330 533 0 179 28 314 84 407s142 139 257 139" id="ab"/><g id="k"><use transform="matrix(0.017361111111111105,0,0,0.017361111111111105,0,0)" xlink:href="#ab"/><use transform="matrix(0.017361111111111105,0,0,0.017361111111111105,21.336805555555546,0)" xlink:href="#aa"/></g><path fill="#fff" d="M587-135c154 0 209-115 209-281v-777H485v-156h501v929C982-148 857 20 586 20c-254 0-368-136-410-370l187-31c24 134 77 246 224 246" id="ac"/><g id="l"><use transform="matrix(0.017361111111111105,0,0,0.017361111111111105,0,0)" xlink:href="#ac"/><use transform="matrix(0.017361111111111105,0,0,0.017361111111111105,21.336805555555546,0)" xlink:href="#R"/></g><path fill="#f2f3f5" d="M611-1370c266 0 451 106 451 368 0 147-77 243-154 327-132 144-316 255-451 395-42 44-75 87-96 134h723V0H144v-117c124-264 387-411 582-603 73-72 151-147 151-271 0-161-104-231-266-231-163 0-249 90-268 238l-184-17c35-233 185-369 452-369" id="ad"/><g id="m"><use transform="matrix(0.017361111111111105,0,0,0.017361111111111105,0,0)" xlink:href="#Z"/><use transform="matrix(0.017361111111111105,0,0,0.017361111111111105,21.336805555555546,0)" xlink:href="#ad"/></g><path fill="#fff" d="M655-135c108 0 195-33 260-74v-336H622v-160h479v572C981-54 839 20 639 20c-388 0-526-306-526-701 0-406 129-689 529-689 261 0 392 137 461 331l-171 56c-47-131-122-231-288-231-281 0-330 245-330 533 0 179 28 314 84 407s142 139 257 139" id="ae"/><g id="n"><use transform="matrix(0.017361111111111105,0,0,0.017361111111111105,0,0)" xlink:href="#ae"/><use transform="matrix(0.017361111111111105,0,0,0.017361111111111105,21.336805555555546,0)" xlink:href="#Y"/></g><path fill="#f2f3f5" d="M162 0v-1349h919v156H353v422h668v154H353v461h769V0H162" id="af"/><g id="o"><use transform="matrix(0.017361111111111105,0,0,0.017361111111111105,0,0)" xlink:href="#af"/><use transform="matrix(0.017361111111111105,0,0,0.017361111111111105,21.336805555555546,0)" xlink:href="#aa"/></g><path fill="#f2f3f5" d="M875 0v-623H353V0H162v-1349h191v566h522v-566h191V0H875" id="ag"/><g id="p"><use transform="matrix(0.017361111111111105,0,0,0.017361111111111105,0,0)" xlink:href="#ag"/><use transform="matrix(0.017361111111111105,0,0,0.017361111111111105,21.336805555555546,0)" xlink:href="#aa"/></g><path fill="#fff" d="M1003 0L516-638 353-469V0H162v-1349h191v673l572-673h225L646-777 1227 0h-224" id="ah"/><g id="q"><use transform="matrix(0.017361111111111105,0,0,0.017361111111111105,0,0)" xlink:href="#ah"/><use transform="matrix(0.017361111111111105,0,0,0.017361111111111105,21.336805555555546,0)" xlink:href="#R"/></g><path fill="#fff" d="M162 0v-1349h919v156H353v422h668v154H353v461h769V0H162" id="ai"/><g id="r"><use transform="matrix(0.017361111111111105,0,0,0.017361111111111105,0,0)" xlink:href="#ai"/><use transform="matrix(0.017361111111111105,0,0,0.017361111111111105,21.336805555555546,0)" xlink:href="#Y"/></g><g id="s"><use transform="matrix(0.017361111111111105,0,0,0.017361111111111105,0,0)" xlink:href="#ag"/><use transform="matrix(0.017361111111111105,0,0,0.017361111111111105,21.336805555555546,0)" xlink:href="#ad"/></g><g id="t"><use transform="matrix(0.017361111111111105,0,0,0.017361111111111105,0,0)" xlink:href="#ah"/><use transform="matrix(0.017361111111111105,0,0,0.017361111111111105,21.336805555555546,0)" xlink:href="#Y"/></g><path d="M30-248c87 1 191-15 191 75 0 78-77 80-158 76V0H30v-248zm33 125c57 0 124 11 124-50 0-59-68-47-124-48v98" id="aj"/><path d="M160-131c35 5 61 23 61 61C221 17 115-2 30 0v-248c76 3 177-17 177 60 0 33-19 50-47 57zm-97-11c50-1 110 9 110-42 0-47-63-36-110-37v79zm0 115c55-2 124 14 124-45 0-56-70-42-124-44v89" id="ak"/><path d="M100-194c63 0 86 42 84 106H49c0 40 14 67 53 68 26 1 43-12 49-29l28 8c-11 28-37 45-77 45C44 4 14-33 15-96c1-61 26-98 85-98zm52 81c6-60-76-77-97-28-3 7-6 17-6 28h103" id="al"/><path d="M30 0v-248h33v221h125V0H30" id="am"/><g id="u"><use transform="matrix(0.12345679012345674,0,0,0.12345679012345674,0,0)" xlink:href="#aj"/><use transform="matrix(0.12345679012345674,0,0,0.12345679012345674,29.62962962962962,0)" xlink:href="#ak"/><use transform="matrix(0.12345679012345674,0,0,0.12345679012345674,59.25925925925924,0)" xlink:href="#al"/><use transform="matrix(0.12345679012345674,0,0,0.12345679012345674,83.95061728395058,0)" xlink:href="#am"/></g><path d="M30 0v-248h187v28H63v79h144v27H63v87h162V0H30" id="an"/><path d="M141 0L90-78 38 0H4l68-98-65-92h35l48 74 47-74h35l-64 92 68 98h-35" id="ao"/><path d="M96-169c-40 0-48 33-48 73s9 75 48 75c24 0 41-14 43-38l32 2c-6 37-31 61-74 61-59 0-76-41-82-99-10-93 101-131 147-64 4 7 5 14 7 22l-32 3c-4-21-16-35-41-35" id="ap"/><path d="M24 0v-261h32V0H24" id="aq"/><path d="M84 4C-5 8 30-112 23-190h32v120c0 31 7 50 39 49 72-2 45-101 50-169h31l1 190h-30c-1-10 1-25-2-33-11 22-28 36-60 37" id="ar"/><path d="M135-143c-3-34-86-38-87 0 15 53 115 12 119 90S17 21 10-45l28-5c4 36 97 45 98 0-10-56-113-15-118-90-4-57 82-63 122-42 12 7 21 19 24 35" id="as"/><path d="M24-231v-30h32v30H24zM24 0v-190h32V0H24" id="at"/><path d="M108 0H70L1-190h34L89-25l56-165h34" id="au"/><g id="v"><use transform="matrix(0.12345679012345674,0,0,0.12345679012345674,0,0)" xlink:href="#an"/><use transform="matrix(0.12345679012345674,0,0,0.12345679012345674,29.62962962962962,0)" xlink:href="#ao"/><use transform="matrix(0.12345679012345674,0,0,0.12345679012345674,51.85185185185183,0)" xlink:href="#ap"/><use transform="matrix(0.12345679012345674,0,0,0.12345679012345674,74.07407407407405,0)" xlink:href="#aq"/><use transform="matrix(0.12345679012345674,0,0,0.12345679012345674,83.82716049382714,0)" xlink:href="#ar"/><use transform="matrix(0.12345679012345674,0,0,0.12345679012345674,108.51851851851848,0)" xlink:href="#as"/><use transform="matrix(0.12345679012345674,0,0,0.12345679012345674,130.7407407407407,0)" xlink:href="#at"/><use transform="matrix(0.12345679012345674,0,0,0.12345679012345674,140.4938271604938,0)" xlink:href="#au"/><use transform="matrix(0.12345679012345674,0,0,0.12345679012345674,162.716049382716,0)" xlink:href="#al"/></g><path d="M114-163C36-179 61-72 57 0H25l-1-190h30c1 12-1 29 2 39 6-27 23-49 58-41v29" id="av"/><path d="M100-194c62-1 85 37 85 99 1 63-27 99-86 99S16-35 15-95c0-66 28-99 85-99zM99-20c44 1 53-31 53-75 0-43-8-75-51-75s-53 32-53 75 10 74 51 75" id="aw"/><path d="M59-47c-2 24 18 29 38 22v24C64 9 27 4 27-40v-127H5v-23h24l9-43h21v43h35v23H59v120" id="ax"/><path d="M117-194c89-4 53 116 60 194h-32v-121c0-31-8-49-39-48C34-167 62-67 57 0H25l-1-190h30c1 10-1 24 2 32 11-22 29-35 61-36" id="ay"/><g id="w"><use transform="matrix(0.12345679012345674,0,0,0.12345679012345674,0,0)" xlink:href="#aj"/><use transform="matrix(0.12345679012345674,0,0,0.12345679012345674,29.62962962962962,0)" xlink:href="#av"/><use transform="matrix(0.12345679012345674,0,0,0.12345679012345674,44.32098765432097,0)" xlink:href="#aw"/><use transform="matrix(0.12345679012345674,0,0,0.12345679012345674,69.01234567901233,0)" xlink:href="#ax"/><use transform="matrix(0.12345679012345674,0,0,0.12345679012345674,81.358024691358,0)" xlink:href="#al"/><use transform="matrix(0.12345679012345674,0,0,0.12345679012345674,106.04938271604934,0)" xlink:href="#at"/><use transform="matrix(0.12345679012345674,0,0,0.12345679012345674,115.80246913580243,0)" xlink:href="#ay"/><use transform="matrix(0.12345679012345674,0,0,0.12345679012345674,140.49382716049377,0)" xlink:href="#as"/></g><path d="M16-82v-28h88v28H16" id="az"/><path d="M185-189c-5-48-123-54-124 2 14 75 158 14 163 119 3 78-121 87-175 55-17-10-28-26-33-46l33-7c5 56 141 63 141-1 0-78-155-14-162-118-5-82 145-84 179-34 5 7 8 16 11 25" id="aA"/><path d="M115-194c55 1 70 41 70 98S169 2 115 4C84 4 66-9 55-30l1 105H24l-1-265h31l2 30c10-21 28-34 59-34zm-8 174c40 0 45-34 45-75s-6-73-45-74c-42 0-51 32-51 76 0 43 10 73 51 73" id="aB"/><path d="M101-234c-31-9-42 10-38 44h38v23H63V0H32v-167H5v-23h27c-7-52 17-82 69-68v24" id="aC"/><g id="x"><use transform="matrix(0.12345679012345674,0,0,0.12345679012345674,0,0)" xlink:href="#ak"/><use transform="matrix(0.12345679012345674,0,0,0.12345679012345674,29.62962962962962,0)" xlink:href="#at"/><use transform="matrix(0.12345679012345674,0,0,0.12345679012345674,39.3827160493827,0)" xlink:href="#az"/><use transform="matrix(0.12345679012345674,0,0,0.12345679012345674,54.074074074074055,0)" xlink:href="#aA"/><use transform="matrix(0.12345679012345674,0,0,0.12345679012345674,83.70370370370367,0)" xlink:href="#aB"/><use transform="matrix(0.12345679012345674,0,0,0.12345679012345674,108.395061728395,0)" xlink:href="#al"/><use transform="matrix(0.12345679012345674,0,0,0.12345679012345674,133.08641975308635,0)" xlink:href="#ap"/><use transform="matrix(0.12345679012345674,0,0,0.12345679012345674,155.30864197530855,0)" xlink:href="#at"/><use transform="matrix(0.12345679012345674,0,0,0.12345679012345674,165.06172839506164,0)" xlink:href="#aC"/><use transform="matrix(0.12345679012345674,0,0,0.12345679012345674,177.4074074074073,0)" xlink:href="#at"/><use transform="matrix(0.12345679012345674,0,0,0.12345679012345674,187.1604938271604,0)" xlink:href="#ap"/></g><g id="y"><use transform="matrix(0.12345679012345674,0,0,0.12345679012345674,0,0)" xlink:href="#aj"/><use transform="matrix(0.12345679012345674,0,0,0.12345679012345674,29.62962962962962,0)" xlink:href="#av"/><use transform="matrix(0.12345679012345674,0,0,0.12345679012345674,44.32098765432097,0)" xlink:href="#aw"/></g><path fill="#fff" d="M709-1193V0H519v-1193H76v-156h1076v156H709" id="aD"/><path fill="#fff" d="M1000-272c3 95 12 159 101 161 21 0 41-3 59-7V-6c-44 10-86 16-139 16-141 2-191-84-197-217h-6C748-76 648 20 446 20c-207 0-318-120-318-322 0-266 194-348 454-354l236-4c12-191-40-305-222-305-140 0-220 47-232 172l-188-17c33-204 181-292 423-292 255 0 401 118 401 364v466zm-683-27c0 109 63 184 175 182 166-3 259-96 306-217 24-65 20-120 20-200-232 7-501-28-501 235" id="aE"/><path fill="#fff" d="M1048-32c-2 300-135 456-433 456-222-1-358-88-400-267l184-25c22 99 100 157 222 156 184-2 248-125 248-315 0-64 3-133-2-194C807-100 706-13 524-12c-306 0-381-228-381-537 0-318 85-550 400-550 164 0 271 83 325 202h3c1-60 3-134 12-185h171c-13 339-4 702-6 1050zM585-145c210-8 284-178 284-406 0-192-52-331-177-392-33-16-69-22-104-22-223 2-259 184-259 414 0 229 31 415 256 406" id="aF"/><path fill="#fff" d="M682 16c-209 0-323-80-324-285v-671H190v-142h170l58-282h120v282h432v142H538v652c2 114 60 155 182 155 106 0 209-16 297-34v137C921-4 806 16 682 16" id="aG"/><g id="z"><use transform="matrix(0.010850694444444444,0,0,0.010850694444444444,0,0)" xlink:href="#aD"/><use transform="matrix(0.010850694444444444,0,0,0.010850694444444444,13.335503472222221,0)" xlink:href="#aE"/><use transform="matrix(0.010850694444444444,0,0,0.010850694444444444,26.671006944444443,0)" xlink:href="#T"/><use transform="matrix(0.010850694444444444,0,0,0.010850694444444444,40.006510416666664,0)" xlink:href="#aF"/><use transform="matrix(0.010850694444444444,0,0,0.010850694444444444,53.342013888888886,0)" xlink:href="#K"/><use transform="matrix(0.010850694444444444,0,0,0.010850694444444444,66.67751736111111,0)" xlink:href="#aG"/><path fill="#fff" d="M-1.1 4.72h82.23v.9H-1.1z"/></g><path fill="#fff" d="M745-142h380V0H143v-142h422v-798H246v-142h499v940zM545-1292v-192h200v192H545" id="aH"/><path fill="#fff" d="M706-1102c241 0 344 136 343 381V0H868v-695c1-168-57-273-220-268-190 6-283 138-283 336V0H185c-3-360 6-732-6-1082h170c4 54 7 126 8 185h3c63-121 164-204 346-205" id="aI"/><path fill="#fff" d="M873-819c-18-114-119-146-250-146-163 0-245 50-245 151 0 151 170 148 294 185 182 54 388 94 388 320 0 240-189 325-439 329-245 4-410-69-454-268l159-31c24 133 136 168 295 165 144-2 270-31 270-171 0-164-195-160-331-202-167-52-350-87-350-299 0-218 173-315 413-313 220 2 373 77 412 260" id="aJ"/><g id="A"><use transform="matrix(0.010850694444444444,0,0,0.010850694444444444,0,0)" xlink:href="#I"/><use transform="matrix(0.010850694444444444,0,0,0.010850694444444444,13.335503472222221,0)" xlink:href="#T"/><use transform="matrix(0.010850694444444444,0,0,0.010850694444444444,26.671006944444443,0)" xlink:href="#U"/><use transform="matrix(0.010850694444444444,0,0,0.010850694444444444,40.006510416666664,0)" xlink:href="#aG"/><use transform="matrix(0.010850694444444444,0,0,0.010850694444444444,53.342013888888886,0)" xlink:href="#K"/><use transform="matrix(0.010850694444444444,0,0,0.010850694444444444,66.67751736111111,0)" xlink:href="#aH"/><use transform="matrix(0.010850694444444444,0,0,0.010850694444444444,80.01302083333334,0)" xlink:href="#aI"/><use transform="matrix(0.010850694444444444,0,0,0.010850694444444444,93.34852430555557,0)" xlink:href="#aJ"/><path fill="#fff" d="M-1.1 4.72h108.9v.9H-1.1z"/></g><path fill="#3a414a" d="M614-1226c-167 1-283 53-283 213 0 183 186 193 334 234 230 63 463 120 463 409 0 286-219 387-518 390C309 23 131-98 79-338l185-37c34 165 149 248 351 246 184-2 324-58 324-238 0-203-207-221-372-266-210-57-422-111-422-377 0-267 201-356 470-360 279-5 430 101 480 324l-188 33c-28-141-121-215-293-213" id="aK"/><path fill="#3a414a" d="M617-1102c355 0 481 238 477 599H322c5 222 84 388 301 388 144 0 244-59 284-166l158 45C1002-72 854 20 623 20c-342 0-490-220-490-568 0-346 151-554 484-554zm291 461c-18-192-90-328-289-328-194 0-287 128-295 328h584" id="aL"/><path fill="#3a414a" d="M839-1102c70 0 148 7 206 17v167c-112-18-268-36-363 15-129 69-208 203-208 395V0H294c-10-367 32-789-52-1082h171c21 75 41 161 48 250h5c67-152 152-270 373-270" id="aM"/><path fill="#3a414a" d="M745-142h380V0H143v-142h422v-798H246v-142h499v940zM545-1292v-192h200v192H545" id="aN"/><path fill="#3a414a" d="M873-819c-18-114-119-146-250-146-163 0-245 50-245 151 0 151 170 148 294 185 182 54 388 94 388 320 0 240-189 325-439 329-245 4-410-69-454-268l159-31c24 133 136 168 295 165 144-2 270-31 270-171 0-164-195-160-331-202-167-52-350-87-350-299 0-218 173-315 413-313 220 2 373 77 412 260" id="aO"/><g id="B"><use transform="matrix(0.010850694444444444,0,0,0.010850694444444444,0,0)" xlink:href="#aK"/><use transform="matrix(0.010850694444444444,0,0,0.010850694444444444,13.335503472222221,0)" xlink:href="#aL"/><use transform="matrix(0.010850694444444444,0,0,0.010850694444444444,26.671006944444443,0)" xlink:href="#aM"/><use transform="matrix(0.010850694444444444,0,0,0.010850694444444444,40.006510416666664,0)" xlink:href="#aN"/><use transform="matrix(0.010850694444444444,0,0,0.010850694444444444,53.342013888888886,0)" xlink:href="#aL"/><use transform="matrix(0.010850694444444444,0,0,0.010850694444444444,66.67751736111111,0)" xlink:href="#aO"/></g><path fill="#3a414a" d="M148-1120c216-7 379-89 463-229h166v1204h353V0H157v-145h439v-1021c-79 124-254 184-448 194v-148" id="aP"/><use transform="matrix(0.010850694444444444,0,0,0.010850694444444444,0,0)" xlink:href="#aP" id="C"/><path fill="#3a414a" d="M622-1349c296 4 497 117 497 404 0 282-193 424-485 431H353V0H162v-1349h460zm-15 684c195-3 320-88 320-277 0-184-129-255-328-254H353v531h254" id="aQ"/><path fill="#3a414a" d="M615-1102c343 0 484 203 482 560-1 347-147 562-488 562-336 0-475-219-479-562-4-349 156-560 485-560zm-8 989c240 0 301-180 301-429 0-245-55-427-290-427-236 0-299 181-299 427 0 243 61 429 288 429" id="aR"/><path fill="#3a414a" d="M682 16c-209 0-323-80-324-285v-671H190v-142h170l58-282h120v282h432v142H538v652c2 114 60 155 182 155 106 0 209-16 297-34v137C921-4 806 16 682 16" id="aS"/><path fill="#3a414a" d="M706-1102c241 0 344 136 343 381V0H868v-695c1-168-57-273-220-268-190 6-283 138-283 336V0H185c-3-360 6-732-6-1082h170c4 54 7 126 8 185h3c63-121 164-204 346-205" id="aT"/><g id="D"><use transform="matrix(0.010850694444444444,0,0,0.010850694444444444,0,0)" xlink:href="#aQ"/><use transform="matrix(0.010850694444444444,0,0,0.010850694444444444,13.335503472222221,0)" xlink:href="#aM"/><use transform="matrix(0.010850694444444444,0,0,0.010850694444444444,26.671006944444443,0)" xlink:href="#aR"/><use transform="matrix(0.010850694444444444,0,0,0.010850694444444444,40.006510416666664,0)" xlink:href="#aS"/><use transform="matrix(0.010850694444444444,0,0,0.010850694444444444,53.342013888888886,0)" xlink:href="#aL"/><use transform="matrix(0.010850694444444444,0,0,0.010850694444444444,66.67751736111111,0)" xlink:href="#aN"/><use transform="matrix(0.010850694444444444,0,0,0.010850694444444444,80.01302083333334,0)" xlink:href="#aT"/><use transform="matrix(0.010850694444444444,0,0,0.010850694444444444,93.34852430555557,0)" xlink:href="#aO"/></g><path fill="#3a414a" d="M655-135c108 0 195-33 260-74v-336H622v-160h479v572C981-54 839 20 639 20c-388 0-526-306-526-701 0-406 129-689 529-689 261 0 392 137 461 331l-171 56c-47-131-122-231-288-231-281 0-330 245-330 533 0 179 28 314 84 407s142 139 257 139" id="aU"/><path fill="#3a414a" d="M385-1193v494h676v158H385V0H194v-1349h891v156H385" id="aV"/><g id="E"><use transform="matrix(0.010850694444444444,0,0,0.010850694444444444,0,0)" xlink:href="#aU"/><use transform="matrix(0.010850694444444444,0,0,0.010850694444444444,13.335503472222221,0)" xlink:href="#aV"/><use transform="matrix(0.010850694444444444,0,0,0.010850694444444444,26.671006944444443,0)" xlink:href="#aQ"/></g><path fill="#3a414a" d="M237 0v-1349h191v1193h672V0H237" id="aW"/><path fill="#3a414a" d="M604-135c236 0 291-142 291-376v-838h190v859c5 340-142 510-480 510-326 0-463-164-463-492v-877h191v851c-3 222 46 363 271 363" id="aX"/><g id="F"><use transform="matrix(0.010850694444444444,0,0,0.010850694444444444,0,0)" xlink:href="#aV"/><use transform="matrix(0.010850694444444444,0,0,0.010850694444444444,13.335503472222221,0)" xlink:href="#aW"/><use transform="matrix(0.010850694444444444,0,0,0.010850694444444444,26.671006944444443,0)" xlink:href="#aX"/></g><path fill="#3a414a" d="M285-1169c8 382 2 780 4 1169H129v-1349h237c86 239 188 461 253 720 69-258 169-481 255-720h225V0H937c2-390-5-788 6-1169-75 255-170 488-259 729H547c-90-240-185-475-262-729" id="aY"/><path fill="#3a414a" d="M102-681c0-398 126-689 513-689 165 0 291 58 379 174s132 287 132 515c-1 318-88 554-298 657-123 61-317 58-438-3-206-104-288-341-288-654zm749 406c94-160 97-656-5-807-57-85-130-132-231-132-104 0-178 47-234 132-101 153-99 655 1 809 57 89 130 138 232 138 109 0 184-49 237-140" id="aZ"/><g id="G"><use transform="matrix(0.010850694444444444,0,0,0.010850694444444444,0,0)" xlink:href="#aY"/><use transform="matrix(0.010850694444444444,0,0,0.010850694444444444,13.335503472222221,0)" xlink:href="#aZ"/><use transform="matrix(0.010850694444444444,0,0,0.010850694444444444,26.671006944444443,0)" xlink:href="#aX"/></g><path fill="#3a414a" d="M611-1370c266 0 451 106 451 368 0 147-77 243-154 327-132 144-316 255-451 395-42 44-75 87-96 134h723V0H144v-117c124-264 387-411 582-603 73-72 151-147 151-271 0-161-104-231-266-231-163 0-249 90-268 238l-184-17c35-233 185-369 452-369" id="ba"/><use transform="matrix(0.010850694444444444,0,0,0.010850694444444444,0,0)" xlink:href="#ba" id="H"/></defs></g></svg>